<svg width="24" height="24" viewBox="0 0 24 24" fill="none" xmlns="http://www.w3.org/2000/svg">
<g id="Frame">
<path id="Vector" d="M18 7.5V10.5M18 10.5V13.5M18 10.5H21M18 10.5H15M12.75 6.375C12.75 7.27011 12.3944 8.12855 11.7615 8.76149C11.1285 9.39442 10.2701 9.75 9.375 9.75C8.47989 9.75 7.62145 9.39442 6.98851 8.76149C6.35558 8.12855 6 7.27011 6 6.375C6 5.47989 6.35558 4.62145 6.98851 3.98851C7.62145 3.35558 8.47989 3 9.375 3C10.2701 3 11.1285 3.35558 11.7615 3.98851C12.3944 4.62145 12.75 5.47989 12.75 6.375ZM3 19.235V19.125C3 17.4342 3.67165 15.8127 4.86719 14.6172C6.06274 13.4216 7.68424 12.75 9.375 12.75C11.0658 12.75 12.6873 13.4216 13.8828 14.6172C15.0784 15.8127 15.75 17.4342 15.75 19.125V19.234C13.8255 20.3931 11.6206 21.0038 9.374 21C7.043 21 4.862 20.355 3 19.234V19.235Z" stroke="#12132D" stroke-opacity="0.6" stroke-width="1.5" stroke-linecap="round" stroke-linejoin="round"/>
</g>
</svg>
