<svg width="28" height="28" viewBox="0 0 28 28" fill="none" xmlns="http://www.w3.org/2000/svg">
<g id="tabler-icon-message-2">
<path id="Vector" d="M9.33333 10.5H18.6667M9.33333 15.1666H16.3333M10.5 21H7C6.07174 21 5.1815 20.6312 4.52513 19.9748C3.86875 19.3185 3.5 18.4282 3.5 17.5V8.16663C3.5 7.23837 3.86875 6.34813 4.52513 5.69175C5.1815 5.03538 6.07174 4.66663 7 4.66663H21C21.9283 4.66663 22.8185 5.03538 23.4749 5.69175C24.1313 6.34813 24.5 7.23837 24.5 8.16663V17.5C24.5 18.4282 24.1313 19.3185 23.4749 19.9748C22.8185 20.6312 21.9283 21 21 21H17.5L14 24.5L10.5 21Z" stroke="#12132D" stroke-opacity="0.6" stroke-width="1.5" stroke-linecap="round" stroke-linejoin="round"/>
</g>
</svg>
